<?xml version="1.0" encoding="utf-8"?>
<!-- Generator: Adobe Illustrator 23.0.0, SVG Export Plug-In . SVG Version: 6.00 Build 0)  -->
<svg version="1.1" id="Layer_1" xmlns="http://www.w3.org/2000/svg" xmlns:xlink="http://www.w3.org/1999/xlink" x="0px" y="0px"
	 viewBox="0 0 1366 768" style="enable-background:new 0 0 1366 768;" xml:space="preserve">
<style type="text/css">
	.st0{clip-path:url(#SVGID_2_);fill:#010101;}
	.st1{clip-path:url(#SVGID_4_);}
	.st2{clip-path:url(#SVGID_6_);fill:#54C0E8;}
	.st3{clip-path:url(#SVGID_8_);fill:#CE0E2D;}
</style>
<g>
	<g>
		<g>
			<defs>
				<path id="SVGID_1_" d="M624.8,179h116.4C850.4,179,939,267.6,939,376.8v0c0,109.3-88.6,197.8-197.8,197.8H624.8
					c-109.3,0-197.8-88.6-197.8-197.8v0C427,267.6,515.6,179,624.8,179z"/>
			</defs>
			<clipPath id="SVGID_2_">
				<use xlink:href="#SVGID_1_"  style="overflow:visible;"/>
			</clipPath>
			<rect x="633" y="313.6" class="st0" width="32.2" height="122.9"/>
		</g>
		<g>
			<defs>
				<path id="SVGID_3_" d="M624.8,179h116.4C850.4,179,939,267.6,939,376.8v0c0,109.3-88.6,197.8-197.8,197.8H624.8
					c-109.3,0-197.8-88.6-197.8-197.8v0C427,267.6,515.6,179,624.8,179z"/>
			</defs>
			<clipPath id="SVGID_4_">
				<use xlink:href="#SVGID_3_"  style="overflow:visible;"/>
			</clipPath>
			<g class="st1">
				<g>
					<defs>
						<rect id="SVGID_5_" x="427" y="179" width="512" height="395.6"/>
					</defs>
					<clipPath id="SVGID_6_">
						<use xlink:href="#SVGID_5_"  style="overflow:visible;"/>
					</clipPath>
					<path class="st2" d="M699.7,313.5c17.1,0,31,13.4,31,30c0,16.6-13.9,30-31,30c-17.1,0-31-13.4-31-30
						C668.7,326.9,682.6,313.5,699.7,313.5"/>
				</g>
				<g>
					<defs>
						<rect id="SVGID_7_" x="427" y="179" width="512" height="395.6"/>
					</defs>
					<clipPath id="SVGID_8_">
						<use xlink:href="#SVGID_7_"  style="overflow:visible;"/>
					</clipPath>
					<path class="st3" d="M699.7,436.4c-17.1,0-31-13.4-31-30c0-16.6,13.9-30,31-30s31,13.4,31,30
						C730.7,423,716.8,436.4,699.7,436.4"/>
				</g>
			</g>
		</g>
	</g>
</g>
</svg>
