<?xml version="1.0" encoding="utf-8"?>
<!-- Generator: Adobe Illustrator 23.0.0, SVG Export Plug-In . SVG Version: 6.00 Build 0)  -->
<svg version="1.1" id="Layer_1" xmlns="http://www.w3.org/2000/svg" xmlns:xlink="http://www.w3.org/1999/xlink" x="0px" y="0px"
	 viewBox="0 0 57.6 19.5" style="enable-background:new 0 0 57.6 19.5;" xml:space="preserve">
<style type="text/css">
	.st0{clip-path:url(#SVGID_2_);}
	.st1{clip-path:url(#SVGID_4_);fill:#0F0B0D;}
	.st2{clip-path:url(#SVGID_6_);fill:#0F0B0D;}
	.st3{clip-path:url(#SVGID_8_);fill:#0F0B0D;}
	.st4{clip-path:url(#SVGID_10_);fill:#0F0B0D;}
	.st5{clip-path:url(#SVGID_12_);fill:#0F0B0D;}
</style>
<g>
	<g>
		<g>
			<defs>
				<rect id="SVGID_1_" x="-0.4" y="-11.8" width="58.5" height="45.2"/>
			</defs>
			<clipPath id="SVGID_2_">
				<use xlink:href="#SVGID_1_"  style="overflow:visible;"/>
			</clipPath>
			<g class="st0">
				<g>
					<defs>
						<rect id="SVGID_3_" x="-0.4" y="-11.8" width="58.5" height="45.2"/>
					</defs>
					<clipPath id="SVGID_4_">
						<use xlink:href="#SVGID_3_"  style="overflow:visible;"/>
					</clipPath>
					<path class="st1" d="M10.2,4.7C9.3,3.9,8.2,3.6,5.9,3.6H1.3v14H5v-4.3h1.3c2,0,3.2-0.3,4.1-1.2c0.9-0.9,1.5-2.3,1.5-3.7
						C11.9,6.9,11.3,5.5,10.2,4.7 M8.2,8.5c0,1-0.6,1.4-2,1.4H5V7.1h1.1c0.8,0,1.3,0.1,1.6,0.3C8,7.6,8.2,8,8.2,8.5"/>
				</g>
				<g>
					<defs>
						<rect id="SVGID_5_" x="-0.4" y="-11.8" width="58.5" height="45.2"/>
					</defs>
					<clipPath id="SVGID_6_">
						<use xlink:href="#SVGID_5_"  style="overflow:visible;"/>
					</clipPath>
					<path class="st2" d="M39,11.7l-5-8.1h-3.3v9.9l-3.9-9.9h-3l-4.2,10.6h-3.3l0-10.6h-3.9l0,14h10l0.7-2h4.5l0.7,2h6.1l0-7.8
						l5,7.8h3.3v-14l-3.6,0L39,11.7z M26.5,12.5h-2.3l1.2-3.8L26.5,12.5z"/>
				</g>
				<g>
					<defs>
						<rect id="SVGID_7_" x="-0.4" y="-11.8" width="58.5" height="45.2"/>
					</defs>
					<clipPath id="SVGID_8_">
						<use xlink:href="#SVGID_7_"  style="overflow:visible;"/>
					</clipPath>
					<rect x="44.8" y="3.6" class="st3" width="4.2" height="14"/>
				</g>
				<g>
					<defs>
						<rect id="SVGID_9_" x="-0.4" y="-11.8" width="58.5" height="45.2"/>
					</defs>
					<clipPath id="SVGID_10_">
						<use xlink:href="#SVGID_9_"  style="overflow:visible;"/>
					</clipPath>
					<path class="st4" d="M52.9,10.5c2,0,3.6-1.5,3.6-3.4c0-1.9-1.6-3.4-3.6-3.4c-2,0-3.5,1.5-3.5,3.4C49.4,8.9,51,10.5,52.9,10.5"
						/>
				</g>
				<g>
					<defs>
						<rect id="SVGID_11_" x="-0.4" y="-11.8" width="58.5" height="45.2"/>
					</defs>
					<clipPath id="SVGID_12_">
						<use xlink:href="#SVGID_11_"  style="overflow:visible;"/>
					</clipPath>
					<path class="st5" d="M52.9,10.8c-2,0-3.5,1.5-3.5,3.4c0,1.9,1.6,3.4,3.5,3.4c2,0,3.5-1.5,3.5-3.4
						C56.5,12.3,54.9,10.8,52.9,10.8"/>
				</g>
			</g>
		</g>
	</g>
</g>
</svg>
