<?xml version="1.0" encoding="utf-8"?>
<!-- Generator: Adobe Illustrator 23.0.0, SVG Export Plug-In . SVG Version: 6.00 Build 0)  -->
<svg version="1.1" id="Layer_1" xmlns="http://www.w3.org/2000/svg" xmlns:xlink="http://www.w3.org/1999/xlink" x="0px" y="0px"
	 viewBox="0 0 1366 768" style="enable-background:new 0 0 1366 768;" xml:space="preserve">
<style type="text/css">
	.st0{clip-path:url(#SVGID_2_);fill:#010101;}
	.st1{clip-path:url(#SVGID_2_);}
	.st2{clip-path:url(#SVGID_4_);fill:#54C0E8;}
	.st3{clip-path:url(#SVGID_4_);fill:#CE0E2D;}
</style>
<g>
	<g>
		<defs>
			<rect id="SVGID_1_" x="145" y="-39" width="1093.53" height="845"/>
		</defs>
		<clipPath id="SVGID_2_">
			<use xlink:href="#SVGID_1_"  style="overflow:visible;"/>
		</clipPath>
		<rect x="585.05" y="248.41" class="st0" width="68.67" height="262.43"/>
		<g class="st1">
			<defs>
				<rect id="SVGID_3_" x="145" y="-39" width="1093.53" height="845"/>
			</defs>
			<clipPath id="SVGID_4_">
				<use xlink:href="#SVGID_3_"  style="overflow:visible;"/>
			</clipPath>
			<path class="st2" d="M727.46,248.27c36.62,0,66.29,28.68,66.29,64.09c0,35.4-29.67,64.12-66.29,64.12
				c-36.58,0-66.27-28.71-66.27-64.12C661.19,276.95,690.87,248.27,727.46,248.27"/>
			<path class="st3" d="M727.46,510.84c-36.57,0-66.21-28.66-66.21-64.06c0-35.36,29.64-64.03,66.21-64.03
				c36.57,0,66.22,28.67,66.22,64.03C793.68,482.18,764.03,510.84,727.46,510.84"/>
		</g>
	</g>
</g>
</svg>
